<svg width="820" height="553" viewBox="0 0 820 553" fill="none" xmlns="http://www.w3.org/2000/svg">
<g clip-path="url(#clip0_234_86)">
<rect width="820" height="553" fill="#30C3B0"/>
<line x1="30.5" y1="-2.18557e-08" x2="30.5" y2="553" stroke="white" stroke-opacity="0.5"/>
<line x1="820" y1="37.5" y2="37.5" stroke="white" stroke-opacity="0.5"/>
<line x1="820" y1="77.5" y2="77.5" stroke="white" stroke-opacity="0.5"/>
<line x1="820" y1="117.5" y2="117.5" stroke="white" stroke-opacity="0.5"/>
<line x1="820" y1="157.5" y2="157.5" stroke="white" stroke-opacity="0.5"/>
<line x1="820" y1="197.5" y2="197.5" stroke="white" stroke-opacity="0.5"/>
<line x1="820" y1="237.5" y2="237.5" stroke="white" stroke-opacity="0.5"/>
<line x1="820" y1="277.5" y2="277.5" stroke="white" stroke-opacity="0.5"/>
<line x1="820" y1="317.5" y2="317.5" stroke="white" stroke-opacity="0.5"/>
<line x1="820" y1="357.5" y2="357.5" stroke="white" stroke-opacity="0.5"/>
<line x1="820" y1="397.5" y2="397.5" stroke="white" stroke-opacity="0.5"/>
<line x1="820" y1="437.5" y2="437.5" stroke="white" stroke-opacity="0.5"/>
<line x1="820" y1="477.5" y2="477.5" stroke="white" stroke-opacity="0.5"/>
<line x1="820" y1="517.5" y2="517.5" stroke="white" stroke-opacity="0.5"/>
<line x1="70.5" y1="-2.18557e-08" x2="70.5" y2="553" stroke="white" stroke-opacity="0.5"/>
<line x1="110.5" y1="-2.18557e-08" x2="110.5" y2="553" stroke="white" stroke-opacity="0.5"/>
<line x1="150.5" y1="-2.18557e-08" x2="150.5" y2="553" stroke="white" stroke-opacity="0.5"/>
<line x1="190.5" y1="-2.18557e-08" x2="190.5" y2="553" stroke="white" stroke-opacity="0.5"/>
<line x1="230.5" y1="-2.18557e-08" x2="230.5" y2="553" stroke="white" stroke-opacity="0.5"/>
<line x1="270.5" y1="-2.18557e-08" x2="270.5" y2="553" stroke="white" stroke-opacity="0.5"/>
<line x1="310.5" y1="-2.18557e-08" x2="310.5" y2="553" stroke="white" stroke-opacity="0.5"/>
<line x1="350.5" y1="-2.18557e-08" x2="350.5" y2="553" stroke="white" stroke-opacity="0.5"/>
<line x1="390.5" y1="-2.18557e-08" x2="390.5" y2="553" stroke="white" stroke-opacity="0.5"/>
<line x1="430.5" y1="-2.18557e-08" x2="430.5" y2="553" stroke="white" stroke-opacity="0.5"/>
<line x1="470.5" y1="-2.18557e-08" x2="470.5" y2="553" stroke="white" stroke-opacity="0.5"/>
<line x1="510.5" y1="-2.18557e-08" x2="510.5" y2="553" stroke="white" stroke-opacity="0.5"/>
<line x1="550.5" y1="-2.18557e-08" x2="550.5" y2="553" stroke="white" stroke-opacity="0.5"/>
<line x1="590.5" y1="-2.18557e-08" x2="590.5" y2="553" stroke="white" stroke-opacity="0.5"/>
<line x1="630.5" y1="-2.18557e-08" x2="630.5" y2="553" stroke="white" stroke-opacity="0.5"/>
<line x1="670.5" y1="-2.18557e-08" x2="670.5" y2="553" stroke="white" stroke-opacity="0.5"/>
<line x1="710.5" y1="-2.18557e-08" x2="710.5" y2="553" stroke="white" stroke-opacity="0.5"/>
<line x1="750.5" y1="-2.18557e-08" x2="750.5" y2="553" stroke="white" stroke-opacity="0.5"/>
<line x1="790.5" y1="-2.18557e-08" x2="790.5" y2="553" stroke="white" stroke-opacity="0.5"/>
</g>
<defs>
<clipPath id="clip0_234_86">
<rect width="820" height="553" fill="white"/>
</clipPath>
</defs>
</svg>
