<svg width="619" height="202" viewBox="0 0 619 202" fill="none" xmlns="http://www.w3.org/2000/svg">
<path d="M0.275574 135.292C0.85675 133.375 2.34393 131.61 4.59045 130.278C6.98187 128.861 9.42163 127.522 11.8746 126.212C21.6685 120.981 31.8071 116.423 41.9657 111.944C62.3928 102.936 82.8481 93.931 103.805 86.1891C109.667 84.0236 115.564 81.9539 121.521 80.0577C124.558 79.0897 127.604 78.168 130.682 77.3372C131.664 77.0713 132.662 76.7987 133.664 76.5361C134.465 76.2734 135.268 76.0125 136.087 75.7878C138.787 75.0429 141.515 74.402 144.233 73.7314C149.755 72.3703 155.284 71.039 160.796 69.6399C165.964 68.3284 171.111 66.85 175.952 64.597C180.131 62.6512 184.083 60.2528 187.805 57.5489C195.5 51.9609 202.17 45.0713 208.425 37.9654C215.076 30.4101 221.156 22.3147 228.397 15.2897C232.397 11.4097 236.787 7.86828 241.657 5.11311C244.073 3.74709 246.621 2.54789 249.251 1.64272C251.89 0.732585 254.591 0.27835 257.364 0.00580593C258.282 -0.085042 258.718 0.909326 258.508 1.65263C258.567 1.8145 258.608 1.98629 258.632 2.17955C258.693 2.6982 258.756 3.21852 258.818 3.73718C258.875 4.22941 258.941 4.75467 258.94 5.25186C259.091 6.02985 259.15 6.83261 259.218 7.6106C259.368 9.32019 259.516 11.0298 259.662 12.7394C260.227 19.325 260.772 25.9123 261.294 32.5013C261.551 35.7421 261.787 38.9829 262.052 42.222C262.3 45.2282 262.65 48.2477 263.648 51.1135C265.486 56.4009 269.909 60.1537 274.056 63.6885C276.817 66.0423 279.58 68.3928 282.341 70.7482C283.587 71.8103 284.846 72.8295 286.188 73.771C286.639 74.0881 287.104 74.3921 287.565 74.6993C294.335 76.247 301.101 77.7997 307.867 79.3606C321.611 82.532 335.327 85.7827 349.021 89.159C352.878 90.1104 356.737 91.0602 360.585 92.0446C362.219 92.4625 363.873 92.8738 365.517 93.3248C369.244 94.0482 372.977 94.7304 376.729 95.2986C381.637 96.0436 386.588 96.5474 391.552 96.6614C394.025 96.7175 396.489 96.587 398.958 96.5622C399.874 96.5523 400.782 96.4896 401.688 96.4152C404.006 95.7347 406.231 94.7816 408.411 93.7509C413.697 91.2534 418.966 88.7609 424.383 86.5475C425.745 85.9909 427.113 85.4491 428.485 84.9189C429.86 84.3886 431.303 83.6734 432.758 84.3655C435.131 85.4953 435.263 88.5197 434.948 90.7579C434.608 93.1629 433.439 95.7925 434.239 98.2107C434.988 100.479 437.136 102.185 438.813 103.785C440.837 105.718 442.915 107.623 445.245 109.19C446.434 109.99 447.688 110.713 448.995 111.304C449.819 111.678 450.655 112.016 451.49 112.362C452.457 112.464 453.422 112.594 454.391 112.687C457.467 112.979 460.549 113.209 463.633 113.417C465.144 113.519 466.658 113.585 468.168 113.703C469.161 113.78 470.203 113.799 471.224 113.903C472.748 111.845 474.861 110.107 476.871 108.693C481.266 105.599 486.29 103.377 491.138 101.088C501.686 96.1064 512.456 91.6102 523.183 87.0282C533.926 82.4395 544.646 77.7617 555.036 72.4215C565.321 67.1358 575.3 61.1877 584.461 54.1363C589.233 50.4627 593.82 46.5563 598.588 42.8778C600.954 41.0525 603.357 39.2703 605.842 37.6086C608.317 35.9535 610.948 34.0903 613.809 33.1603C615.193 32.7111 616.742 32.6698 618.124 33.1339C619.348 33.5452 619.188 35.0252 618.269 35.4398C617.689 36.7232 616.925 37.9488 616.254 39.1712C615.394 40.7371 614.558 42.3161 613.714 43.8903C612.102 46.8982 611.109 50.1836 609.214 53.0494C608.355 54.3477 607.296 55.5139 606.413 56.799C605.978 57.4316 605.584 58.0262 605.412 58.7811C605.241 59.5409 605.134 60.3272 605.031 61.0985C604.826 62.6198 604.546 64.1097 603.579 65.3552C602.616 66.5924 601.217 67.1441 599.672 67.2167C597.887 67.2993 596.033 66.9591 594.258 66.7922C593.866 66.7559 593.472 66.7262 593.079 66.6931C593.647 69.7671 590.577 73.1863 588.795 75.3418C586.231 78.4455 583.528 81.4419 580.79 84.3952C575.261 90.3598 569.448 96.0139 563.409 101.471C551.337 112.38 538.65 122.596 526.613 133.544C523.652 136.236 520.392 138.911 517.947 142.113C517.657 142.769 517.356 143.422 517.194 144.125C516.884 145.475 516.871 146.887 516.986 148.261C517.252 151.443 518.142 154.571 518.823 157.683C519.496 160.754 520.065 163.876 521.084 166.857C522.124 169.893 523.581 172.794 524.903 175.714C526.422 179.07 527.942 182.428 529.461 185.785C529.801 186.536 529.679 187.425 528.91 187.873C528.397 188.17 527.623 188.119 527.14 187.727C524.535 187.896 522.004 187.085 519.554 186.181C516.769 185.155 514.022 184.021 511.402 182.628C506.466 180.005 502.028 176.508 498.018 172.65C489.994 164.926 483.659 155.729 476.313 147.411C475.995 147.051 475.659 146.704 475.337 146.347C475.176 146.205 475.021 146.056 474.86 145.914C473.872 145.059 472.936 144.269 471.68 143.84C470.353 143.385 468.913 143.337 467.525 143.232C464.494 142.999 461.43 143.005 458.406 142.715C458.328 142.706 458.249 142.69 458.171 142.68C457.875 142.768 457.582 142.873 457.282 143.048C456.586 143.455 455.916 143.894 455.297 144.409C453.736 145.708 452.224 147.069 450.689 148.395C449.158 149.717 447.588 150.99 446.059 152.313C445.318 152.954 444.572 153.588 443.858 154.256C443.363 154.718 442.843 155.29 442.227 155.607C442.041 156.104 442.242 156.576 442.489 157.026C442.855 157.693 443.251 158.365 443.658 159.009C444.552 160.432 445.586 161.778 446.525 163.172C447.012 163.892 447.488 164.617 447.969 165.341C448.487 166.12 449.143 166.774 449.668 167.541C449.813 167.754 449.879 167.964 449.899 168.167C450.094 168.539 450.079 168.981 449.641 169.358C447.143 171.505 443.126 171.654 439.991 171.289C436.497 170.881 433.218 169.716 430.098 168.127C426.969 166.535 424.053 164.568 421.121 162.655C418.031 160.64 414.966 158.26 411.57 156.775C409.803 156.002 407.896 155.577 406.004 155.24C405.013 155.063 404.058 154.789 403.105 154.493C402.192 154.457 401.276 154.46 400.355 154.503C398.287 154.598 396.22 154.769 394.159 154.963C392.843 155.086 391.459 155.166 390.105 155.329C389.915 156.041 389.389 156.649 388.926 157.204C388.781 157.378 388.621 157.536 388.472 157.706C389.159 158.266 389.671 159.117 389.939 159.888C390.443 161.343 389.837 162.774 388.61 163.638C386.074 165.423 382.978 166.366 380.478 168.228C378.411 169.767 377.34 172.073 376.621 174.47C376.231 175.768 375.93 177.091 375.615 178.41C375.445 179.117 375.305 179.893 375.086 180.628C375.151 181.153 374.989 181.688 374.614 182.113C374.419 182.334 374.201 182.49 373.971 182.613C373.822 182.717 373.663 182.782 373.498 182.803C373.042 182.924 372.548 182.916 372.041 182.802C370.414 182.433 368.821 181.731 367.3 181.064C366.031 180.507 364.8 179.871 363.598 179.186C362.069 179.269 360.637 178.771 359.197 178.263C357.749 177.751 356.327 177.169 354.92 176.558C352.235 175.392 349.622 174.074 347.001 172.775C344.417 171.495 341.822 170.217 339.136 169.153C338.871 169.047 338.615 168.932 338.351 168.823C333.124 170.025 327.807 170.889 322.521 171.769C316.712 172.737 310.892 173.631 305.06 174.447C293.261 176.1 281.418 177.457 269.55 178.5C245.832 180.583 222.004 181.431 198.198 181.036C191.557 180.925 184.919 180.719 178.284 180.415C174.903 180.26 171.524 180.08 168.149 179.875C167.734 179.85 167.319 179.82 166.905 179.795C166.55 180.198 166.149 180.564 165.829 180.866C164.69 181.941 163.441 182.927 162.218 183.907C159.707 185.922 157.086 187.812 154.395 189.582C152.045 191.128 149.282 192.45 147.483 194.67C145.781 196.771 145.112 199.648 142.662 201.127C141.601 201.767 140.191 202.147 138.942 201.946C136.695 202.017 134.357 201.143 132.425 200.099C129.573 198.555 127.113 196.305 125.01 193.869C120.89 189.095 117.969 183.31 116.611 177.167C116.563 176.944 116.533 176.718 116.488 176.495C115.795 176.522 115.098 176.517 114.401 176.51C112.766 176.494 111.131 176.447 109.497 176.36C106.354 176.193 103.217 175.917 100.091 175.56C93.9344 174.86 87.8143 173.862 81.7224 172.741C75.7621 171.644 69.8036 170.506 63.8766 169.244C58.0429 168.003 52.2325 166.525 46.7169 164.234C44.4021 163.273 41.8325 162.285 40.1005 160.4C38.8915 159.085 38.162 157.295 38.317 155.537C35.3477 155.339 32.39 154.905 29.484 154.29C21.8917 152.683 14.2961 149.895 7.50647 146.15C5.81952 145.22 4.22241 144.099 2.80853 142.792C0.273865 140.453 -0.47052 137.749 0.275574 135.292Z" fill="#1B3567"/>
</svg>
