<svg width="307" height="101" viewBox="0 0 307 101" fill="none" xmlns="http://www.w3.org/2000/svg">
<path d="M0.136658 67.6458C0.424927 66.6877 1.16248 65.8049 2.27667 65.1392C3.46274 64.4306 4.67273 63.7608 5.88937 63.1059C10.7467 60.4903 15.7751 58.2116 20.8134 55.9718C30.9444 51.4682 41.0895 46.9655 51.4832 43.0945C54.3905 42.0118 57.3152 40.977 60.2696 40.0288C61.7761 39.5449 63.2867 39.084 64.8131 38.6686C65.3004 38.5356 65.7952 38.3994 66.2924 38.268C66.6897 38.1367 67.0877 38.0062 67.4941 37.8939C68.833 37.5214 70.1859 37.201 71.5338 36.8657C74.2726 36.1851 77.0148 35.5195 79.7487 34.8199C82.3116 34.1642 84.8645 33.425 87.2656 32.2985C89.3379 31.3256 91.2978 30.1264 93.1438 28.7744C96.9605 25.9804 100.268 22.5357 103.371 18.9827C106.669 15.2051 109.685 11.1574 113.276 7.64486C115.26 5.70485 117.437 3.93414 119.852 2.55655C121.051 1.87354 122.315 1.27395 123.619 0.821358C124.928 0.366292 126.268 0.139175 127.643 0.00290297C128.098 -0.042521 128.314 0.454663 128.21 0.826314C128.239 0.907251 128.26 0.993144 128.271 1.08977C128.302 1.3491 128.333 1.60926 128.364 1.86859C128.392 2.1147 128.425 2.37734 128.424 2.62593C128.499 3.01492 128.528 3.41631 128.562 3.8053C128.636 4.6601 128.71 5.51489 128.783 6.36969C129.062 9.66251 129.333 12.9562 129.592 16.2506C129.719 17.871 129.836 19.4914 129.968 21.111C130.091 22.6141 130.264 24.1238 130.759 25.5568C131.671 28.2004 133.865 30.0769 135.921 31.8443C137.291 33.0212 138.661 34.1964 140.03 35.3741C140.648 35.9052 141.272 36.4147 141.938 36.8855C142.162 37.0441 142.392 37.196 142.621 37.3496C145.979 38.1235 149.334 38.8998 152.69 39.6803C159.507 41.266 166.309 42.8914 173.101 44.5795C175.014 45.0552 176.928 45.5301 178.836 46.0223C179.647 46.2313 180.467 46.4369 181.282 46.6624C183.13 47.0241 184.982 47.3652 186.843 47.6493C189.277 48.0218 191.733 48.2737 194.195 48.3307C195.421 48.3588 196.643 48.2935 197.868 48.2811C198.322 48.2762 198.772 48.2448 199.222 48.2076C200.371 47.8674 201.475 47.3908 202.556 46.8755C205.177 45.6267 207.791 44.3805 210.478 43.2738C211.153 42.9954 211.831 42.7245 212.512 42.4594C213.194 42.1943 213.909 41.8367 214.631 42.1828C215.808 42.7477 215.873 44.2599 215.717 45.3789C215.549 46.5814 214.969 47.8963 215.365 49.1054C215.737 50.2393 216.803 51.0925 217.634 51.8927C218.638 52.859 219.669 53.8113 220.824 54.5951C221.414 54.9948 222.036 55.3565 222.684 55.6522C223.093 55.8388 223.508 56.0082 223.921 56.1808C224.401 56.232 224.88 56.2972 225.36 56.3435C226.886 56.4896 228.415 56.6044 229.944 56.7085C230.693 56.7597 231.444 56.7927 232.193 56.8514C232.686 56.8902 233.203 56.8993 233.709 56.9513C234.465 55.9223 235.513 55.0534 236.51 54.3465C238.689 52.7996 241.181 51.6887 243.586 50.5441C248.817 48.0532 254.158 45.8051 259.478 43.5141C264.807 41.2198 270.123 38.8808 275.276 36.2107C280.377 33.5679 285.326 30.5939 289.87 27.0681C292.237 25.2314 294.512 23.2781 296.876 21.4389C298.05 20.5263 299.242 19.6351 300.474 18.8043C301.701 17.9767 303.006 17.0451 304.425 16.5802C305.112 16.3555 305.88 16.3349 306.565 16.5669C307.173 16.7726 307.093 17.5126 306.637 17.7199C306.35 18.3616 305.971 18.9744 305.638 19.5856C305.212 20.3685 304.797 21.1581 304.378 21.9451C303.579 23.4491 303.087 25.0918 302.147 26.5247C301.72 27.1739 301.195 27.7569 300.757 28.3995C300.542 28.7158 300.346 29.0131 300.261 29.3905C300.176 29.7705 300.123 30.1636 300.072 30.5493C299.97 31.3099 299.832 32.0549 299.352 32.6776C298.874 33.2962 298.18 33.572 297.414 33.6084C296.529 33.6497 295.609 33.4795 294.729 33.3961C294.535 33.3779 294.339 33.3631 294.144 33.3466C294.426 34.8835 292.903 36.5931 292.02 37.6709C290.748 39.2228 289.407 40.7209 288.049 42.1976C285.307 45.1799 282.424 48.0069 279.429 50.7357C273.442 56.1898 267.15 61.298 261.18 66.772C259.711 68.1182 258.094 69.4553 256.882 71.0567C256.738 71.3846 256.588 71.7108 256.508 72.0626C256.355 72.7374 256.348 73.4435 256.405 74.1307C256.537 75.7213 256.978 77.2856 257.316 78.8415C257.65 80.3769 257.932 81.9378 258.438 83.4285C258.953 84.9465 259.676 86.3968 260.332 87.8569C261.085 89.5352 261.839 91.2142 262.592 92.8924C262.761 93.2682 262.7 93.7125 262.319 93.9363C262.064 94.085 261.68 94.0594 261.441 93.8636C260.149 93.9479 258.894 93.5424 257.679 93.0906C256.298 92.5777 254.935 92.0104 253.636 91.3141C251.188 90.0026 248.986 88.2542 246.997 86.3249C243.018 82.4631 239.876 77.8645 236.233 73.7053C236.075 73.5253 235.908 73.3518 235.749 73.1735C235.669 73.1024 235.592 73.0281 235.512 72.9571C235.022 72.5293 234.558 72.1345 233.935 71.9198C233.277 71.6926 232.562 71.6687 231.874 71.6158C230.371 71.4994 228.851 71.5027 227.352 71.3573C227.313 71.3532 227.274 71.3449 227.235 71.34C227.088 71.3838 226.943 71.4366 226.794 71.5241C226.449 71.7273 226.117 71.947 225.81 72.2047C225.036 72.8538 224.286 73.5344 223.524 74.1975C222.765 74.8583 221.986 75.495 221.228 76.1566C220.86 76.477 220.49 76.7942 220.136 77.1278C219.891 77.3591 219.633 77.6448 219.328 77.8034C219.235 78.052 219.335 78.2882 219.457 78.5128C219.639 78.8465 219.835 79.1826 220.037 79.5047C220.481 80.2158 220.993 80.8889 221.459 81.586C221.7 81.9461 221.937 82.3086 222.175 82.6704C222.432 83.0602 222.758 83.3872 223.018 83.7704C223.09 83.877 223.123 83.9819 223.133 84.0835C223.229 84.2693 223.222 84.4906 223.005 84.6789C221.766 85.7526 219.774 85.8269 218.218 85.6444C216.485 85.4404 214.859 84.8581 213.312 84.0636C211.76 83.2675 210.314 82.2839 208.859 81.3275C207.327 80.3199 205.807 79.1298 204.123 78.3873C203.246 78.0008 202.301 77.7885 201.362 77.62C200.871 77.5317 200.397 77.3946 199.924 77.2467C199.472 77.2286 199.018 77.2302 198.561 77.2517C197.535 77.2988 196.51 77.3847 195.487 77.4813C194.835 77.5432 194.149 77.5829 193.477 77.6646C193.383 78.0206 193.122 78.3245 192.892 78.602C192.82 78.6888 192.741 78.768 192.667 78.8531C193.008 79.1331 193.262 79.5584 193.394 79.9441C193.645 80.6717 193.344 81.3869 192.735 81.8189C191.477 82.7116 189.942 83.1832 188.702 84.114C187.677 84.8837 187.146 86.0367 186.789 87.2351C186.596 87.8842 186.447 88.5457 186.291 89.2048C186.206 89.5583 186.137 89.9465 186.028 90.314C186.06 90.5766 185.98 90.8442 185.794 91.0564C185.698 91.1671 185.589 91.2448 185.475 91.3067C185.401 91.3587 185.323 91.3909 185.241 91.4017C185.014 91.462 184.769 91.4578 184.518 91.4008C183.711 91.2167 182.921 90.8657 182.167 90.532C181.537 90.2537 180.927 89.9357 180.331 89.593C179.572 89.6343 178.862 89.3857 178.148 89.1313C177.43 88.8753 176.724 88.5846 176.027 88.279C174.695 87.6959 173.399 87.0368 172.099 86.3877C170.817 85.7476 169.53 85.1084 168.198 84.5765C168.067 84.5237 167.94 84.4658 167.809 84.4113C165.217 85.0126 162.579 85.4445 159.958 85.8847C157.077 86.3687 154.19 86.8155 151.298 87.2235C145.446 88.0502 139.573 88.7283 133.686 89.2502C121.923 90.2917 110.105 90.7154 98.2985 90.518C95.0047 90.4626 91.7125 90.3594 88.4219 90.2074C86.7452 90.1298 85.0694 90.0398 83.3952 89.9374C83.1895 89.925 82.9839 89.9101 82.7782 89.8977C82.6023 90.0992 82.4032 90.2818 82.2447 90.4329C81.6797 90.9706 81.0603 91.4636 80.454 91.9534C79.2085 92.961 77.9084 93.9058 76.5737 94.7911C75.4083 95.5641 74.0381 96.2249 73.146 97.3349C72.3019 98.3854 71.9699 99.8241 70.7549 100.563C70.2288 100.884 69.5292 101.074 68.9098 100.973C67.7956 101.008 66.6359 100.572 65.6778 100.05C64.263 99.2774 63.0431 98.1525 61.9999 96.9343C59.9565 94.5475 58.5078 91.6552 57.8347 88.5837C57.8107 88.4722 57.7959 88.3591 57.7735 88.2476C57.43 88.2608 57.0839 88.2583 56.7386 88.255C55.9276 88.2468 55.1165 88.2236 54.3062 88.1799C52.7477 88.0965 51.1916 87.9585 49.6413 87.7801C46.5878 87.43 43.5525 86.9311 40.5312 86.3703C37.5751 85.822 34.6198 85.2529 31.6803 84.6219C28.787 84.0017 25.9053 83.2625 23.1698 82.117C22.0217 81.6363 20.7473 81.1425 19.8883 80.2001C19.2887 79.5427 18.9269 78.6475 19.0037 77.7687C17.531 77.6696 16.0642 77.4524 14.6229 77.1452C10.8574 76.3416 7.0903 74.9475 3.72293 73.0752C2.88623 72.6102 2.09415 72.0494 1.39291 71.3961C0.135834 70.2267 -0.233368 68.8747 0.136658 67.6458Z" fill="#1B3567"/>
</svg>
