<svg width="337" height="110" viewBox="0 0 337 110" fill="none" xmlns="http://www.w3.org/2000/svg">
<path d="M0.150024 73.6736C0.466431 72.6302 1.27609 71.6687 2.49918 70.9437C3.80112 70.1719 5.12936 69.4424 6.46487 68.7291C11.7969 65.8805 17.3167 63.3988 22.8472 60.9594C33.9683 56.0545 45.1047 51.1505 56.5141 46.9346C59.7055 45.7554 62.916 44.6284 66.1591 43.5958C67.8128 43.0687 69.4711 42.5667 71.1466 42.1143C71.6815 41.9695 72.2246 41.8211 72.7704 41.6781C73.2065 41.535 73.6436 41.3929 74.0896 41.2706C75.5593 40.8649 77.0444 40.5159 78.5241 40.1507C81.5305 39.4096 84.5406 38.6846 87.5417 37.9227C90.355 37.2085 93.1575 36.4035 95.7931 35.1766C98.0679 34.117 100.219 32.8109 102.246 31.3385C106.435 28.2955 110.067 24.5438 113.472 20.6742C117.093 16.56 120.403 12.1516 124.346 8.32609C126.523 6.2132 128.913 4.28471 131.564 2.78437C132.88 2.04049 134.267 1.38747 135.699 0.894548C137.136 0.398932 138.606 0.151577 140.116 0.00316165C140.615 -0.04631 140.853 0.495178 140.739 0.899945C140.771 0.988095 140.793 1.08164 140.806 1.18688C140.839 1.46932 140.874 1.75266 140.907 2.0351C140.938 2.30314 140.975 2.58918 140.974 2.85992C141.056 3.28358 141.088 3.72073 141.125 4.14439C141.207 5.07535 141.287 6.00632 141.367 6.93728C141.674 10.5235 141.971 14.1107 142.256 17.6987C142.395 19.4635 142.524 21.2283 142.668 22.9922C142.803 24.6292 142.994 26.2735 143.537 27.8341C144.538 30.7133 146.946 32.757 149.203 34.6819C150.707 35.9636 152.211 37.2436 153.714 38.5263C154.392 39.1046 155.078 39.6596 155.808 40.1723C156.054 40.345 156.307 40.5105 156.558 40.6778C160.244 41.5206 163.927 42.3662 167.611 43.2162C175.094 44.9432 182.561 46.7134 190.016 48.5519C192.116 49.07 194.217 49.5872 196.312 50.1233C197.202 50.3509 198.102 50.5749 198.997 50.8204C201.026 51.2144 203.059 51.5859 205.101 51.8953C207.773 52.301 210.469 52.5753 213.172 52.6374C214.518 52.668 215.859 52.5969 217.203 52.5834C217.702 52.578 218.196 52.5438 218.689 52.5034C219.952 52.1328 221.163 51.6138 222.35 51.0525C225.227 49.6925 228.096 48.3351 231.045 47.1298C231.787 46.8267 232.531 46.5317 233.278 46.2429C234.027 45.9542 234.813 45.5647 235.605 45.9416C236.897 46.5569 236.969 48.2038 236.797 49.4226C236.612 50.7323 235.976 52.1642 236.411 53.4811C236.819 54.7161 237.989 55.6452 238.902 56.5168C240.003 57.5692 241.135 58.6064 242.403 59.46C243.05 59.8953 243.733 60.2893 244.445 60.6113C244.894 60.8146 245.349 60.999 245.803 61.187C246.33 61.2427 246.855 61.3138 247.382 61.3642C249.057 61.5234 250.735 61.6484 252.414 61.7617C253.237 61.8175 254.061 61.8535 254.883 61.9174C255.424 61.9596 255.991 61.9695 256.547 62.0262C257.376 60.9054 258.527 59.9592 259.621 59.1892C262.014 57.5045 264.749 56.2947 267.389 55.048C273.131 52.3351 278.995 49.8868 284.835 47.3916C290.683 44.8928 296.52 42.3455 302.176 39.4374C307.776 36.5591 313.208 33.3201 318.196 29.4802C320.794 27.4797 323.291 25.3524 325.887 23.3493C327.175 22.3553 328.484 21.3848 329.836 20.4799C331.184 19.5786 332.616 18.564 334.174 18.0576C334.927 17.813 335.77 17.7905 336.523 18.0432C337.189 18.2672 337.102 19.0731 336.602 19.2989C336.286 19.9978 335.87 20.6652 335.505 21.3308C335.037 22.1835 334.582 23.0434 334.122 23.9007C333.245 25.5386 332.704 27.3277 331.672 28.8883C331.205 29.5953 330.628 30.2303 330.147 30.9301C329.911 31.2746 329.696 31.5984 329.602 32.0095C329.509 32.4233 329.451 32.8514 329.395 33.2715C329.283 34.0999 329.131 34.9112 328.604 35.5895C328.08 36.2632 327.319 36.5636 326.477 36.6032C325.505 36.6481 324.496 36.4629 323.53 36.372C323.317 36.3522 323.102 36.336 322.888 36.318C323.197 37.992 321.526 39.8539 320.556 41.0277C319.16 42.7179 317.688 44.3495 316.198 45.9578C313.187 49.2058 310.022 52.2848 306.735 55.2567C300.162 61.1969 293.256 66.7602 286.702 72.722C285.09 74.1881 283.315 75.6444 281.984 77.3885C281.826 77.7456 281.662 78.1009 281.574 78.4841C281.406 79.2189 281.398 79.988 281.461 80.7364C281.606 82.4688 282.09 84.1724 282.461 85.867C282.827 87.5392 283.137 89.2392 283.692 90.8627C284.258 92.516 285.051 94.0955 285.771 95.6858C286.598 97.5135 287.426 99.3422 288.253 101.17C288.438 101.579 288.371 102.063 287.953 102.307C287.673 102.469 287.252 102.441 286.989 102.228C285.571 102.319 284.193 101.878 282.859 101.386C281.343 100.827 279.847 100.209 278.421 99.451C275.734 98.0227 273.317 96.1184 271.134 94.0172C266.766 89.8113 263.317 84.8029 259.318 80.2731C259.144 80.077 258.961 79.8882 258.786 79.6939C258.698 79.6165 258.614 79.5355 258.526 79.4582C257.988 78.9923 257.479 78.5623 256.795 78.3284C256.073 78.0811 255.288 78.055 254.533 77.9974C252.883 77.8706 251.215 77.8742 249.568 77.7159C249.526 77.7114 249.483 77.7024 249.44 77.697C249.279 77.7447 249.12 77.8022 248.956 77.8976C248.577 78.1189 248.213 78.3581 247.876 78.6388C247.026 79.3458 246.203 80.0869 245.367 80.8092C244.534 81.5288 243.679 82.2223 242.846 82.9428C242.443 83.2918 242.037 83.6372 241.648 84.0006C241.379 84.2524 241.096 84.5637 240.76 84.7364C240.659 85.0071 240.768 85.2644 240.903 85.509C241.102 85.8724 241.318 86.2385 241.539 86.5893C242.026 87.3638 242.589 88.0968 243.1 88.856C243.365 89.2482 243.624 89.6431 243.886 90.037C244.168 90.4616 244.526 90.8178 244.811 91.2351C244.89 91.3512 244.926 91.4654 244.937 91.576C245.043 91.7784 245.035 92.0195 244.797 92.2246C243.437 93.3939 241.25 93.4749 239.543 93.2761C237.64 93.0539 235.855 92.4198 234.157 91.5545C232.453 90.6873 230.866 89.6161 229.269 88.5745C227.587 87.4771 225.918 86.1809 224.07 85.3723C223.108 84.9513 222.069 84.7202 221.039 84.5367C220.5 84.4404 219.98 84.2911 219.461 84.1301C218.964 84.1103 218.465 84.1121 217.964 84.1355C216.838 84.1868 215.713 84.2803 214.59 84.3856C213.874 84.453 213.121 84.4962 212.384 84.5852C212.28 84.9729 211.994 85.3039 211.742 85.6062C211.663 85.7006 211.576 85.787 211.494 85.8796C211.869 86.1845 212.147 86.6478 212.293 87.0678C212.568 87.8603 212.238 88.6392 211.569 89.1096C210.189 90.082 208.503 90.5956 207.142 91.6093C206.017 92.4476 205.434 93.7033 205.042 95.0085C204.83 95.7155 204.666 96.436 204.495 97.1537C204.402 97.5387 204.326 97.9615 204.207 98.3618C204.242 98.6478 204.154 98.9392 203.95 99.1704C203.844 99.2909 203.725 99.3755 203.6 99.4429C203.518 99.4996 203.432 99.5347 203.342 99.5464C203.094 99.612 202.825 99.6075 202.549 99.5455C201.663 99.3449 200.796 98.9626 199.968 98.5992C199.277 98.2961 198.607 97.9498 197.952 97.5765C197.12 97.6215 196.34 97.3507 195.556 97.0737C194.768 96.7948 193.994 96.4782 193.228 96.1454C191.766 95.5104 190.344 94.7926 188.917 94.0856C187.51 93.3885 186.097 92.6923 184.635 92.113C184.49 92.0555 184.351 91.9925 184.208 91.9331C181.362 92.588 178.467 93.0584 175.589 93.5378C172.426 94.0649 169.258 94.5515 166.083 94.9959C159.659 95.8963 153.212 96.6347 146.75 97.2032C133.837 98.3375 120.865 98.7989 107.904 98.5839C104.288 98.5237 100.675 98.4112 97.0625 98.2457C95.222 98.1612 93.3824 98.0631 91.5446 97.9516C91.3188 97.9381 91.093 97.9219 90.8673 97.9084C90.6742 98.1279 90.4557 98.3267 90.2816 98.4913C89.6615 99.0768 88.9815 99.6138 88.316 100.147C86.9487 101.245 85.5217 102.274 84.0565 103.238C82.7772 104.08 81.2731 104.799 80.2939 106.008C79.3672 107.152 79.0028 108.719 77.6691 109.524C77.0916 109.873 76.3236 110.08 75.6436 109.97C74.4205 110.009 73.1476 109.533 72.0959 108.965C70.5428 108.124 69.2036 106.899 68.0585 105.572C65.8155 102.973 64.2252 99.8225 63.4863 96.4773C63.46 96.3559 63.4437 96.2327 63.4192 96.1112C63.042 96.1256 62.6621 96.1229 62.2831 96.1193C61.3928 96.1104 60.5025 96.0852 59.613 96.0375C57.9022 95.9466 56.1941 95.7964 54.4923 95.6021C51.1404 95.2207 47.8084 94.6775 44.4919 94.0667C41.2469 93.4695 38.0029 92.8497 34.7761 92.1625C31.6001 91.487 28.4368 90.682 25.4339 89.4344C24.1737 88.9109 22.7747 88.373 21.8318 87.3467C21.1736 86.6307 20.7764 85.6556 20.8607 84.6986C19.2442 84.5907 17.634 84.3541 16.0518 84.0195C11.9184 83.1443 7.78317 81.626 4.08673 79.5868C3.16827 79.0804 2.2988 78.4697 1.52905 77.7582C0.149109 76.4845 -0.256165 75.012 0.150024 73.6736Z" fill="#1B3567"/>
</svg>
