<svg width="94" height="30" viewBox="0 0 94 30" fill="none" xmlns="http://www.w3.org/2000/svg">
<path d="M0.0418472 20.0928C0.130104 19.8082 0.355942 19.546 0.697098 19.3483C1.06026 19.1378 1.43075 18.9388 1.80326 18.7443C3.29053 17.9674 4.83016 17.2906 6.37283 16.6253C9.47483 15.2876 12.5811 13.9501 15.7636 12.8004C16.6538 12.4788 17.5493 12.1714 18.4539 11.8898C18.9152 11.746 19.3777 11.6091 19.8451 11.4857C19.9943 11.4462 20.1457 11.4057 20.298 11.3667C20.4196 11.3277 20.5415 11.289 20.6659 11.2556C21.0759 11.145 21.4901 11.0498 21.9029 10.9502C22.7415 10.7481 23.5811 10.5503 24.4182 10.3426C25.2029 10.1478 25.9846 9.92822 26.7197 9.59362C27.3543 9.30464 27.9544 8.94844 28.5196 8.54686C29.6882 7.71696 30.7011 6.69376 31.651 5.63842C32.661 4.51635 33.5843 3.31407 34.6839 2.27075C35.2914 1.69451 35.958 1.16856 36.6975 0.759373C37.0644 0.556498 37.4514 0.3784 37.8507 0.243968C38.2515 0.1088 38.6617 0.0413391 39.0828 0.000862267C39.2221 -0.01263 39.2884 0.135048 39.2565 0.24544C39.2654 0.26948 39.2717 0.294993 39.2752 0.323695C39.2846 0.400723 39.2942 0.477997 39.3036 0.555026C39.3122 0.62813 39.3223 0.706139 39.322 0.779979C39.345 0.895522 39.3539 1.01474 39.3643 1.13029C39.387 1.38419 39.4095 1.63809 39.4318 1.89199C39.5175 2.87005 39.6002 3.84837 39.6796 4.82692C39.7186 5.30823 39.7545 5.78953 39.7947 6.27059C39.8324 6.71707 39.8855 7.1655 40.0369 7.59112C40.3161 8.37637 40.9878 8.93372 41.6175 9.45869C42.0368 9.80826 42.4564 10.1573 42.8757 10.5072C43.0649 10.6649 43.2561 10.8163 43.4599 10.9561C43.5284 11.0032 43.599 11.0483 43.669 11.094C44.6971 11.3238 45.7246 11.5544 46.7521 11.7862C48.8392 12.2572 50.9221 12.74 53.0016 13.2414C53.5873 13.3827 54.1733 13.5238 54.7577 13.67C55.0058 13.7321 55.2569 13.7931 55.5065 13.8601C56.0725 13.9676 56.6395 14.0689 57.2093 14.1533C57.9546 14.2639 58.7064 14.3387 59.4603 14.3556C59.8359 14.364 60.2099 14.3446 60.5849 14.3409C60.724 14.3395 60.8619 14.3301 60.9994 14.3191C61.3515 14.218 61.6893 14.0765 62.0204 13.9234C62.8231 13.5525 63.6232 13.1823 64.4459 12.8536C64.6528 12.7709 64.8604 12.6905 65.0688 12.6117C65.2777 12.533 65.4967 12.4267 65.7177 12.5295C66.0781 12.6973 66.098 13.1465 66.0503 13.4789C65.9987 13.8361 65.8211 14.2266 65.9425 14.5858C66.0563 14.9226 66.3826 15.176 66.6372 15.4137C66.9445 15.7007 67.2601 15.9836 67.6139 16.2164C67.7945 16.3351 67.9849 16.4425 68.1834 16.5304C68.3086 16.5858 68.4356 16.6361 68.5623 16.6874C68.7092 16.7026 68.8556 16.7219 69.0028 16.7357C69.4699 16.7791 69.938 16.8132 70.4064 16.8441C70.6357 16.8593 70.8656 16.8691 71.095 16.8866C71.2457 16.8981 71.404 16.9008 71.5591 16.9162C71.7905 16.6106 72.1114 16.3525 72.4166 16.1425C73.084 15.683 73.847 15.3531 74.5832 15.0131C76.185 14.2732 77.8205 13.6055 79.4494 12.925C81.0808 12.2435 82.7087 11.5488 84.2865 10.7557C85.8484 9.97066 87.3637 9.08729 88.7549 8.04004C89.4797 7.49446 90.1762 6.9143 90.9002 6.36798C91.2596 6.09691 91.6245 5.83222 92.0018 5.58543C92.3776 5.33963 92.7772 5.06291 93.2117 4.9248C93.4218 4.85808 93.657 4.85194 93.8669 4.92088C94.0528 4.98196 94.0285 5.20176 93.8889 5.26334C93.8009 5.45394 93.6849 5.63597 93.5829 5.8175C93.4524 6.05006 93.3255 6.28458 93.1973 6.51836C92.9525 6.96508 92.8017 7.45301 92.514 7.87862C92.3835 8.07144 92.2226 8.24463 92.0886 8.43549C92.0226 8.52944 91.9626 8.61776 91.9366 8.72986C91.9105 8.84271 91.8944 8.95948 91.8787 9.07404C91.8476 9.29997 91.8051 9.52125 91.6582 9.70621C91.512 9.88995 91.2996 9.97189 91.0649 9.98268C90.7938 9.99495 90.5123 9.94442 90.2427 9.91964C90.1833 9.91424 90.1233 9.90982 90.0637 9.90492C90.1499 10.3614 89.6838 10.8692 89.4132 11.1894C89.0237 11.6503 88.6133 12.0953 88.1975 12.5339C87.3579 13.4198 86.4751 14.2595 85.5581 15.07C83.7248 16.6901 81.7983 18.2073 79.9704 19.8333C79.5207 20.2331 79.0255 20.6303 78.6543 21.1059C78.6103 21.2033 78.5645 21.3002 78.54 21.4047C78.4929 21.6052 78.4909 21.8149 78.5084 22.019C78.5488 22.4915 78.6839 22.9561 78.7873 23.4183C78.8895 23.8743 78.976 24.338 79.1307 24.7808C79.2886 25.2316 79.5098 25.6624 79.7106 26.0961C79.9413 26.5946 80.1722 27.0933 80.4028 27.5918C80.4544 27.7034 80.4359 27.8354 80.3191 27.9019C80.2412 27.946 80.1236 27.9384 80.0503 27.8803C79.6547 27.9053 79.2703 27.7849 78.8983 27.6507C78.4755 27.4983 78.0582 27.3298 77.6604 27.123C76.9108 26.7334 76.2369 26.2141 75.6279 25.6411C74.4094 24.494 73.4474 23.1281 72.3319 21.8927C72.2836 21.8392 72.2325 21.7877 72.1837 21.7347C72.1592 21.7136 72.1357 21.6915 72.1111 21.6704C71.9612 21.5433 71.819 21.4261 71.6284 21.3623C71.4268 21.2948 71.208 21.2877 70.9974 21.272C70.5371 21.2374 70.0718 21.2384 69.6125 21.1952C69.6006 21.194 69.5888 21.1916 69.5769 21.1901C69.5319 21.2031 69.4873 21.2188 69.4418 21.2448C69.3361 21.3051 69.2345 21.3704 69.1404 21.4469C68.9034 21.6398 68.6738 21.8419 68.4406 22.0389C68.2082 22.2351 67.9697 22.4243 67.7376 22.6208C67.625 22.7159 67.5117 22.8101 67.4032 22.9093C67.3281 22.9779 67.2492 23.0628 67.1557 23.1099C67.1273 23.1838 67.1579 23.2539 67.1954 23.3206C67.251 23.4198 67.3112 23.5196 67.3729 23.6153C67.5087 23.8265 67.6657 24.0264 67.8084 24.2335C67.8822 24.3404 67.9546 24.4481 68.0276 24.5556C68.1063 24.6713 68.2059 24.7685 68.2856 24.8823C68.3076 24.914 68.3177 24.9451 68.3207 24.9753C68.3503 25.0305 68.3481 25.0962 68.2815 25.1522C67.9022 25.4711 67.2922 25.4931 66.816 25.4389C66.2854 25.3783 65.7875 25.2054 65.3138 24.9694C64.8386 24.7329 64.3958 24.4407 63.9505 24.1567C63.4813 23.8574 63.0158 23.5039 62.5001 23.2834C62.2318 23.1685 61.9422 23.1055 61.6549 23.0555C61.5045 23.0292 61.3593 22.9885 61.2146 22.9446C61.0761 22.9392 60.937 22.9397 60.7971 22.946C60.483 22.96 60.1692 22.9855 59.8561 23.0142C59.6563 23.0326 59.4461 23.0444 59.2405 23.0687C59.2117 23.1744 59.1318 23.2647 59.0615 23.3471C59.0395 23.3729 59.0152 23.3964 58.9925 23.4217C59.0969 23.5049 59.1745 23.6312 59.2153 23.7458C59.2919 23.9619 59.1998 24.1743 59.0134 24.3026C58.6283 24.5678 58.1581 24.7079 57.7786 24.9844C57.4647 25.213 57.3021 25.5555 57.1929 25.9114C57.1337 26.1042 57.0879 26.3007 57.0401 26.4965C57.0143 26.6015 56.9931 26.7168 56.9597 26.8259C56.9695 26.9039 56.945 26.9834 56.8881 27.0465C56.8585 27.0793 56.8254 27.1024 56.7905 27.1208C56.7677 27.1363 56.7437 27.1458 56.7187 27.149C56.6494 27.1669 56.5743 27.1657 56.4974 27.1488C56.2503 27.0941 56.0083 26.9898 55.7774 26.8907C55.5847 26.808 55.3978 26.7136 55.2152 26.6118C54.9831 26.624 54.7656 26.5502 54.5468 26.4746C54.327 26.3986 54.1111 26.3122 53.8974 26.2215C53.4897 26.0483 53.0929 25.8525 52.6949 25.6597C52.3024 25.4696 51.9084 25.2797 51.5004 25.1217C51.4602 25.106 51.4213 25.0889 51.3813 25.0727C50.5875 25.2513 49.78 25.3796 48.9773 25.5103C48.0952 25.6541 47.2113 25.7868 46.3257 25.908C44.5339 26.1535 42.7356 26.3549 40.9332 26.51C37.3315 26.8193 33.7131 26.9452 30.0979 26.8865C29.0894 26.8701 28.0813 26.8394 27.0738 26.7943C26.5604 26.7712 26.0473 26.7445 25.5347 26.7141C25.4717 26.7104 25.4087 26.706 25.3458 26.7023C25.2919 26.7622 25.231 26.8164 25.1824 26.8613C25.0094 27.021 24.8198 27.1674 24.6341 27.3129C24.2528 27.6122 23.8547 27.8928 23.446 28.1558C23.0892 28.3854 22.6696 28.5816 22.3965 28.9113C22.138 29.2234 22.0364 29.6507 21.6644 29.8703C21.5033 29.9655 21.2891 30.0219 21.0994 29.992C20.7583 30.0025 20.4032 29.8727 20.1098 29.7177C19.6766 29.4883 19.3031 29.1542 18.9837 28.7924C18.358 28.0834 17.9145 27.2243 17.7083 26.312C17.701 26.2789 17.6964 26.2453 17.6896 26.2122C17.5844 26.2161 17.4785 26.2153 17.3727 26.2144C17.1244 26.2119 16.8761 26.205 16.628 26.192C16.1508 26.1673 15.6743 26.1263 15.1996 26.0733C14.2647 25.9693 13.3353 25.8211 12.4102 25.6546C11.5051 25.4917 10.6002 25.3227 9.70016 25.1352C8.81428 24.951 7.93192 24.7314 7.09433 24.3912C6.74281 24.2484 6.35259 24.1017 6.08958 23.8218C5.90598 23.6266 5.7952 23.3606 5.81873 23.0996C5.36781 23.0702 4.91868 23.0057 4.47737 22.9144C3.32442 22.6757 2.17097 22.2616 1.13992 21.7055C0.883736 21.5674 0.641205 21.4008 0.426498 21.2068C0.0415955 20.8594 -0.0714493 20.4578 0.0418472 20.0928Z" fill="#1B3567"/>
</svg>
