<?xml version="1.0" standalone="no"?>
<!DOCTYPE svg PUBLIC "-//W3C//DTD SVG 20010904//EN"
 "http://www.w3.org/TR/2001/REC-SVG-20010904/DTD/svg10.dtd">
<svg version="1.0" xmlns="http://www.w3.org/2000/svg"
 width="243.000000pt" height="206.000000pt" viewBox="0 0 243.000000 206.000000"
 preserveAspectRatio="xMidYMid meet">

<g transform="translate(0.000000,206.000000) scale(0.100000,-0.100000)"
fill="#000000" stroke="none">
<path d="M1099 1745 c-107 -21 -206 -69 -296 -141 -35 -29 -45 -33 -66 -25
-46 18 -90 -42 -56 -76 7 -7 2 -25 -18 -61 -19 -35 -25 -54 -18 -61 8 -8 23 8
52 52 160 240 441 343 718 262 28 -8 85 -34 128 -59 83 -48 112 -44 57 7 -61
57 -264 118 -383 116 -29 0 -82 -7 -118 -14z m-365 -194 c3 -4 -3 -16 -13 -25
-15 -14 -19 -15 -24 -3 -9 24 25 49 37 28z"/>
<path d="M1080 1674 c-159 -41 -314 -164 -384 -304 -20 -40 -36 -84 -35 -99 0
-20 5 -14 19 25 65 183 234 327 432 368 95 20 126 20 225 1 159 -30 316 -141
393 -277 17 -32 36 -58 41 -58 21 0 -52 110 -121 180 -80 83 -172 136 -280
165 -69 19 -218 18 -290 -1z"/>
<path d="M1244 1644 c3 -9 6 -29 6 -45 0 -16 5 -29 10 -29 6 0 10 16 10 35 0
21 5 35 13 36 6 0 3 4 -8 9 -30 13 -38 12 -31 -6z"/>
<path d="M1098 1643 c-18 -5 -22 -25 -10 -54 6 -14 9 -14 26 2 17 17 18 19 3
19 -9 0 -17 5 -17 10 0 6 7 10 15 10 8 0 15 5 15 10 0 10 -3 11 -32 3z"/>
<path d="M1161 1638 c0 -7 4 -22 9 -33 8 -19 9 -19 9 3 1 12 7 22 15 22 8 0
18 5 21 10 4 6 -7 10 -24 10 -19 0 -31 -5 -30 -12z"/>
<path d="M1317 1643 c-11 -19 -17 -83 -8 -83 5 0 12 8 14 18 4 16 5 16 6 0 2
-31 20 -19 27 18 5 26 3 39 -7 45 -17 11 -27 11 -32 2z m33 -23 c0 -5 -4 -10
-10 -10 -5 0 -10 5 -10 10 0 6 5 10 10 10 6 0 10 -4 10 -10z"/>
<path d="M1390 1604 c-6 -16 -13 -35 -15 -41 -2 -7 0 -13 5 -13 10 0 34 69 26
77 -3 3 -10 -7 -16 -23z"/>
<path d="M1000 1605 c0 -3 7 -22 15 -41 11 -26 19 -34 31 -30 8 3 18 6 20 6 2
0 4 4 4 10 0 5 -6 7 -14 4 -9 -4 -20 6 -31 25 -14 28 -25 39 -25 26z"/>
<path d="M1425 1573 c-12 -29 -13 -38 -3 -45 18 -11 38 -10 38 2 0 6 -7 10
-15 10 -18 0 -18 5 -4 31 8 16 14 18 24 9 9 -7 15 -7 19 -1 6 9 -22 31 -38 31
-3 0 -13 -17 -21 -37z"/>
<path d="M940 1575 c-11 -13 -10 -21 1 -42 18 -33 37 -40 57 -19 16 16 15 17
-13 10 -25 -5 -28 -4 -17 7 17 18 15 30 -3 23 -8 -4 -15 -1 -15 5 0 6 5 11 10
11 6 0 10 5 10 10 0 15 -16 12 -30 -5z"/>
<path d="M1716 1578 c-10 -5 -24 -7 -33 -4 -36 14 -29 -9 20 -69 28 -35 63
-85 77 -112 14 -26 26 -50 27 -52 1 -2 9 -1 18 3 13 5 12 12 -9 53 -13 27 -31
57 -39 68 -13 17 -13 22 1 42 28 43 -18 96 -62 71z m41 -34 c9 -23 -11 -38
-26 -20 -13 16 -7 36 10 36 5 0 12 -7 16 -16z"/>
<path d="M1254 1541 c3 -4 26 -11 50 -13 102 -12 225 -93 292 -193 19 -27 34
-43 34 -35 0 33 -78 123 -149 172 -70 49 -248 103 -227 69z"/>
<path d="M1541 1511 c-25 -35 -26 -47 -5 -55 22 -8 33 2 14 14 -20 13 6 42 31
35 21 -7 25 5 7 23 -18 18 -24 15 -47 -17z"/>
<path d="M1027 1504 c-16 -9 -27 -18 -24 -21 6 -5 67 24 67 32 0 8 -14 5 -43
-11z"/>
<path d="M1130 1502 c0 -5 14 -7 30 -4 17 2 30 6 30 8 0 2 -13 4 -30 4 -16 0
-30 -4 -30 -8z"/>
<path d="M1300 1500 c19 -6 49 -18 66 -27 l31 -16 -31 -55 c-38 -67 -109 -149
-138 -158 -16 -5 -18 -8 -7 -15 46 -29 87 8 161 142 24 43 46 79 50 79 13 0
117 -102 138 -136 27 -43 48 -45 23 -2 -52 91 -187 184 -281 193 -45 5 -46 5
-12 -5z"/>
<path d="M846 1475 c-53 -19 -92 -59 -106 -110 -12 -42 -10 -61 12 -117 16
-42 27 -24 16 26 -18 85 22 166 93 187 21 7 39 16 39 21 0 11 -8 10 -54 -7z"/>
<path d="M1053 1483 c-21 -8 -15 -22 7 -16 11 3 20 9 20 14 0 10 -8 10 -27 2z"/>
<path d="M1595 1460 c-16 -16 -26 -32 -24 -35 3 -3 18 9 34 25 16 16 26 32 24
35 -3 3 -18 -9 -34 -25z"/>
<path d="M1650 1448 c0 -9 -12 -25 -27 -36 -16 -11 -25 -23 -22 -26 3 -4 18 3
32 15 15 11 31 17 37 14 15 -9 12 8 -5 31 -12 16 -14 17 -15 2z"/>
<path d="M519 1378 c-9 -19 -9 -21 2 -10 20 19 56 14 74 -10 12 -18 14 -38 9
-95 -10 -108 12 -147 97 -171 30 -8 45 -5 100 20 l64 30 -30 12 c-16 7 -34 10
-40 6 -28 -22 -92 -14 -120 15 -22 21 -25 33 -25 95 0 103 -17 130 -82 130
-29 0 -40 -5 -49 -22z"/>
<path d="M1665 1374 c-27 -29 -32 -46 -12 -40 6 3 24 7 40 10 15 4 27 11 27
16 0 5 -7 7 -16 3 -13 -5 -15 -2 -9 15 9 29 -1 28 -30 -4z"/>
<path d="M1117 1302 c-10 -10 -17 -22 -17 -27 0 -5 6 -1 14 10 8 11 25 18 45
17 17 0 29 4 26 9 -10 15 -51 10 -68 -9z"/>
<path d="M892 1278 c-19 -19 -14 -30 7 -18 30 15 56 12 85 -11 32 -25 35 -11
3 19 -25 24 -76 29 -95 10z"/>
<path d="M1844 1282 c-8 -5 -7 -32 4 -95 13 -75 14 -102 3 -175 -7 -48 -23
-114 -37 -148 -28 -71 -29 -74 -9 -74 35 0 85 173 85 296 0 71 -16 183 -28
196 -4 4 -12 4 -18 0z"/>
<path d="M1123 1255 c-3 -9 -3 -19 1 -22 7 -7 36 16 36 28 0 15 -30 10 -37 -6z"/>
<path d="M574 1215 c-12 -68 -10 -220 6 -275 27 -100 51 -150 70 -150 18 0 18
1 0 43 -32 71 -50 157 -51 237 -1 41 -4 102 -8 135 l-7 60 -10 -50z"/>
<path d="M1714 1248 c-21 -10 -56 -71 -68 -118 -4 -14 7 0 23 31 16 30 36 61
45 68 17 14 67 18 87 6 12 -8 12 -6 0 8 -15 19 -55 21 -87 5z"/>
<path d="M700 1231 c0 -15 6 -21 21 -21 14 0 19 5 17 17 -5 26 -38 29 -38 4z"/>
<path d="M940 1220 c0 -16 41 -33 52 -22 6 6 7 15 4 21 -9 14 -56 15 -56 1z"/>
<path d="M1804 1082 c-1 -103 -4 -126 -28 -187 -15 -38 -30 -79 -33 -90 l-5
-20 16 20 c8 11 27 56 42 100 20 62 26 102 27 178 0 53 -3 101 -9 107 -5 5 -9
-35 -10 -108z"/>
<path d="M1536 1132 c-48 -33 -116 -34 -196 -3 -30 11 -77 21 -104 21 -47 0
-48 -1 -33 -18 11 -12 27 -17 44 -15 16 2 55 -5 87 -16 33 -12 75 -21 95 -21
43 0 109 29 135 59 24 27 20 26 -28 -7z"/>
<path d="M1730 1140 c0 -13 7 -20 20 -20 13 0 20 7 20 20 0 13 -7 20 -20 20
-13 0 -20 -7 -20 -20z"/>
<path d="M1668 1063 c-6 -82 -33 -162 -73 -218 -32 -45 -37 -55 -27 -55 16 0
74 97 92 154 22 64 33 167 22 184 -6 9 -11 -15 -14 -65z"/>
<path d="M633 1060 c-1 -30 3 -68 7 -85 l8 -30 0 35 c0 19 -3 58 -8 85 l-7 50
0 -55z"/>
<path d="M905 1090 c-3 -5 -30 -17 -60 -25 -29 -9 -58 -22 -64 -29 -7 -9 15
-6 67 9 51 15 78 28 80 39 4 17 -13 22 -23 6z"/>
<path d="M685 1070 c3 -5 13 -10 21 -10 8 0 12 5 9 10 -3 6 -13 10 -21 10 -8
0 -12 -4 -9 -10z"/>
<path d="M1636 1030 c-16 -68 -48 -141 -82 -185 -41 -54 -44 -68 -8 -34 51 47
112 190 102 237 -3 10 -7 4 -12 -18z"/>
<path d="M1722 1003 c4 -22 43 -25 43 -3 0 8 -11 16 -23 18 -19 3 -23 0 -20
-15z"/>
<path d="M786 975 c3 -22 10 -44 15 -49 13 -14 10 13 -7 54 l-14 35 6 -40z"/>
<path d="M1385 875 c-31 -15 -125 -94 -114 -95 4 0 29 18 55 40 66 54 102 65
148 46 43 -18 48 -12 6 9 -36 19 -57 19 -95 0z"/>
<path d="M1680 870 c0 -13 7 -20 20 -20 13 0 20 7 20 20 0 13 -7 20 -20 20
-13 0 -20 -7 -20 -20z"/>
<path d="M670 863 c0 -15 41 -75 47 -70 3 3 -5 22 -17 41 -21 35 -30 43 -30
29z"/>
<path d="M870 863 c0 -7 13 -27 30 -45 16 -18 29 -28 29 -23 0 15 -58 82 -59
68z"/>
<path d="M840 842 c0 -5 11 -19 25 -32 29 -27 33 -15 6 18 -20 23 -31 28 -31
14z"/>
<path d="M760 810 c0 -5 6 -10 14 -10 8 0 18 5 21 10 3 6 -3 10 -14 10 -12 0
-21 -4 -21 -10z"/>
<path d="M614 760 c-36 -14 -74 -69 -74 -105 0 -89 47 -126 157 -122 40 1 73
2 74 2 0 0 3 33 5 73 5 72 5 72 -20 72 -26 0 -36 23 -16 35 18 11 11 22 -24
39 -37 17 -69 19 -102 6z m88 -67 c10 -9 18 -27 18 -40 0 -25 -10 -29 -26 -13
-8 8 -15 6 -24 -5 -10 -12 -10 -19 -2 -27 18 -18 14 -28 -8 -28 -27 0 -60 35
-60 63 0 57 61 87 102 50z"/>
<path d="M384 723 c-9 -21 -29 -69 -45 -107 -16 -37 -29 -72 -29 -77 0 -5 13
-9 29 -9 21 0 32 6 36 20 5 16 15 20 55 20 40 0 50 -4 55 -20 5 -15 15 -20 40
-20 39 0 42 -14 -22 135 -37 85 -41 90 -71 93 -29 3 -34 0 -48 -35z m60 -59
c11 -29 6 -44 -14 -44 -11 0 -20 6 -20 14 0 21 11 46 20 46 4 0 11 -7 14 -16z"/>
<path d="M805 750 c3 -5 19 -10 36 -10 16 0 29 5 29 10 0 6 -16 10 -36 10 -21
0 -33 -4 -29 -10z"/>
<path d="M960 744 c0 -12 6 -15 23 -10 12 3 26 6 30 6 5 0 5 5 2 10 -10 17
-55 12 -55 -6z"/>
<path d="M1262 655 c1 -58 1 -105 -2 -105 -3 0 -20 38 -39 85 -31 77 -37 85
-60 84 -49 -1 -90 -39 -122 -114 -16 -38 -29 -71 -29 -72 0 -2 13 -3 30 -3 19
0 33 7 40 20 16 30 105 29 113 0 5 -19 12 -21 69 -18 l63 3 3 33 c4 42 26 41
54 -3 19 -28 29 -35 56 -35 38 0 39 6 8 45 l-24 30 24 28 c31 36 30 71 -1 102
-22 22 -32 25 -105 25 l-82 0 4 -105z m138 40 c18 -21 -4 -45 -41 -45 -26 0
-29 4 -29 30 0 26 3 30 29 30 16 0 34 -7 41 -15z m-245 -52 c5 -20 3 -23 -19
-23 -30 0 -30 0 -14 35 12 27 22 24 33 -12z"/>
<path d="M1510 645 l0 -115 30 0 30 0 0 115 0 115 -30 0 -30 0 0 -115z"/>
<path d="M1622 669 c4 -85 6 -94 32 -115 30 -26 101 -33 138 -13 30 16 48 71
48 149 l0 70 -35 0 -35 0 0 -80 c0 -69 -3 -81 -20 -90 -14 -8 -26 -8 -40 0
-17 9 -20 21 -20 90 l0 80 -36 0 -36 0 4 -91z"/>
<path d="M1882 648 l3 -113 30 0 30 0 -2 65 c-1 70 2 70 48 0 l16 -24 29 44
29 44 3 -67 c3 -67 3 -67 32 -67 l30 0 0 115 0 115 -35 0 c-30 0 -37 -5 -57
-40 -13 -22 -26 -40 -30 -40 -4 0 -18 18 -30 40 -20 35 -27 40 -61 40 l-38 0
3 -112z"/>
<path d="M810 630 c0 -71 29 -100 99 -100 66 0 100 28 108 88 6 42 5 42 -26
42 -26 0 -31 -4 -31 -25 0 -34 -41 -61 -69 -45 -15 7 -21 21 -21 44 0 33 -13
46 -46 46 -10 0 -14 -14 -14 -50z"/>
<path d="M648 488 c8 -8 8 -17 1 -30 -7 -14 -7 -24 2 -34 9 -11 9 -18 1 -26
-16 -16 -15 -28 3 -28 21 0 19 -27 -2 -39 -51 -28 10 -31 578 -29 566 3 574 3
572 23 -1 11 3 23 10 27 8 5 7 11 -2 22 -10 12 -9 20 4 40 12 18 14 26 5 26
-8 0 -11 11 -8 30 l5 30 -591 0 c-446 0 -587 -3 -578 -12z m280 -84 c-1 -36
-5 -67 -9 -70 -5 -2 -15 8 -23 23 l-15 28 -1 -28 c0 -52 -25 -24 -28 33 -4 71
1 80 43 80 l35 0 -2 -66z m92 51 c0 -9 -9 -15 -25 -15 -14 0 -25 -4 -25 -10 0
-5 11 -10 25 -10 16 0 25 -6 25 -15 0 -9 -9 -15 -25 -15 -14 0 -25 -4 -25 -10
0 -5 11 -10 25 -10 16 0 25 -6 25 -16 0 -12 -9 -14 -37 -12 -36 3 -38 5 -41
42 -6 68 4 86 43 86 24 0 35 -5 35 -15z m90 -26 c0 -32 -4 -42 -19 -46 -11 -3
-21 -14 -23 -26 -2 -11 -8 -22 -14 -24 -13 -4 -30 109 -19 126 3 6 22 11 41
11 33 0 34 -1 34 -41z m98 24 c2 -7 -3 -13 -12 -13 -12 0 -16 -11 -16 -50 0
-38 -4 -50 -15 -50 -11 0 -15 12 -15 50 0 38 -4 50 -15 50 -8 0 -15 7 -15 16
0 12 9 14 42 12 23 -2 43 -9 46 -15z m42 -53 c0 -56 -3 -70 -15 -70 -12 0 -15
14 -15 70 0 56 3 70 15 70 12 0 15 -14 15 -70z m42 23 c3 -41 6 -48 26 -51 20
-3 22 1 22 35 0 44 14 63 46 63 31 0 41 -20 15 -27 -24 -6 -28 -23 -6 -23 8 0
15 -7 15 -15 0 -8 -7 -15 -15 -15 -22 0 -18 -17 5 -23 11 -3 20 -10 20 -16 0
-7 -27 -10 -77 -8 l-78 2 -3 63 c-2 50 0 62 12 62 11 0 16 -13 18 -47z m256
-20 l3 -63 -41 0 -40 0 0 66 0 65 38 -3 37 -3 3 -62z m102 52 c0 -9 -9 -15
-25 -15 -14 0 -25 -4 -25 -10 0 -5 9 -10 20 -10 11 0 20 -7 20 -15 0 -8 -9
-15 -20 -15 -11 0 -20 -4 -20 -10 0 -5 11 -10 25 -10 16 0 25 -6 25 -15 0 -11
-11 -15 -40 -15 l-40 0 0 58 c0 32 3 62 7 65 3 4 21 7 40 7 23 0 33 -5 33 -15z
m49 -7 l8 -22 5 22 c12 46 28 21 28 -43 0 -57 -2 -65 -19 -65 -11 0 -22 6 -24
13 -3 7 -6 4 -6 -6 -1 -10 -7 -17 -13 -15 -13 5 -24 99 -14 124 8 21 26 17 35
-8z m-899 -3 c0 -8 -7 -15 -15 -15 -20 0 -19 -13 4 -34 18 -17 25 -62 11 -71
-13 -8 -70 16 -80 35 -6 12 -5 23 4 36 9 12 11 25 5 35 -11 22 -2 29 38 29 23
0 33 -5 33 -15z"/>
<path d="M880 431 c0 -6 5 -13 10 -16 6 -3 10 1 10 9 0 9 -4 16 -10 16 -5 0
-10 -4 -10 -9z"/>
<path d="M1062 431 c4 -13 18 -16 19 -4 0 4 -5 9 -11 12 -7 2 -11 -2 -8 -8z"/>
<path d="M1507 433 c-11 -10 -8 -63 3 -63 6 0 10 16 10 35 0 36 -2 40 -13 28z"/>
</g>
</svg>
